<svg width="35" height="35" viewBox="0 0 35 35" fill="none" xmlns="http://www.w3.org/2000/svg">
<path d="M11.5126 12.6966C13.6273 18.4654 15.8165 20.767 21.3858 23.2186L18.9722 26.6083C12.5769 23.5465 9.39148 18.3853 7.89126 14.3575L11.5126 12.6966Z" fill="#4D0072"/>
<path d="M13.2866 4.7323C14.4173 4.72787 15.2771 5.66878 15.2 6.7342C15.0787 8.41083 15.2079 9.62048 15.5556 11.1199C15.7466 11.9435 15.3145 12.78 14.6278 13.3189C13.7022 14.0451 12.995 14.9704 12.433 15.767C11.654 16.8711 8.97328 16.7918 8.38042 15.589C7.16202 13.117 6.33632 8.56281 8.11553 5.48589C8.39501 5.00258 8.95772 4.74922 9.54081 4.74694L13.2866 4.7323Z" fill="#4D0072"/>
<path d="M30.4511 23.025C30.5918 21.9653 29.7061 21.0461 28.5769 20.9902C26.7999 20.9023 25.5438 20.6358 24.0095 20.1294C23.1667 19.8513 22.2354 20.1558 21.5864 20.7349C20.7117 21.5153 19.654 22.067 18.749 22.4982C17.4947 23.0957 17.2557 25.6186 18.4488 26.3191C20.9008 27.7587 25.5887 29.0805 29.0371 27.7824C29.5788 27.5785 29.9128 27.0814 29.9853 26.535L30.4511 23.025Z" fill="#4D0072"/>
</svg>
