<svg width="31" height="23" viewBox="0 0 31 23" fill="none" xmlns="http://www.w3.org/2000/svg">
<path fill-rule="evenodd" clip-rule="evenodd" d="M30.7887 0.75139C30.8898 0.670558 30.9481 0.551217 30.9481 0.425429V0.425429C30.9481 0.190471 30.7485 0 30.5022 0H0.692179C0.309899 0 0 0.295684 0 0.660429V0.660429C0 0.856766 0.0915555 1.04292 0.249827 1.1684L14.7822 12.6892C15.0989 12.9403 15.5584 12.9393 15.8739 12.6868L30.7887 0.75139ZM1.39613 4.54265C0.841118 4.10265 0 4.47925 0 5.16774V21.9432C0 22.3921 0.381356 22.756 0.851782 22.756H30.0963C30.5667 22.756 30.9481 22.3921 30.9481 21.9432V4.84122C30.9481 4.15097 30.1032 3.77497 29.5489 4.21853L15.9707 15.0844L15.8799 15.1571C15.5644 15.4095 15.1048 15.4105 14.7882 15.1595L14.697 15.0872L1.39613 4.54265Z" fill="#4D0072"/>
</svg>
